<svg xmlns="http://www.w3.org/2000/svg" version="1.1" xmlns:xlink="http://www.w3.org/1999/xlink" xmlns:svgjs="http://svgjs.dev/svgjs" width="1000" height="1000" viewBox="0 0 1000 1000"><rect width="1000" height="1000" fill="#ffffff"></rect><g transform="matrix(0.7,0,0,0.7,149.25015910816165,109.36714326802434)"><svg viewBox="0 0 221 247" data-background-color="#ffffff" preserveAspectRatio="xMidYMid meet" height="1117" width="1000" xmlns="http://www.w3.org/2000/svg" xmlns:xlink="http://www.w3.org/1999/xlink"><g id="tight-bounds" transform="matrix(1,0,0,1,0.2367925054327884,-0.09997365579206985)"><svg viewBox="0 0 220.52618183813445 247.2" height="247.2" width="220.52618183813445"><g><svg viewBox="0 0 220.52618183813445 247.2" height="247.2" width="220.52618183813445"><g><svg viewBox="0 0 220.52618183813445 247.2" height="247.2" width="220.52618183813445"><g id="textblocktransform"><svg viewBox="0 0 220.52618183813445 247.2" height="247.2" width="220.52618183813445" id="textblock"><g><svg viewBox="0 0 220.52618183813445 247.2" height="247.2" width="220.52618183813445"><path d="M220.01 53.02C218.973 27.36 216.018 20.227 216.018 20.227 206.947-6.202 195.626-0.506 185.455 3.292 167.499 3.446 149.615 9.091 131.7 12.119 94.098 12.581 56.174 4.986 18.758 23.717 15.243 29.464-3.646 24.846 0.625 56.304 1.745 69.39 5.83 83.913 5.705 95.922 6.265 98.026 7.043 93.202 7.374 96.23 8.535 104.39 10.433 100.541 11.988 105.365 9.821 118.246 11.376 128.971 12.859 140.21 10.246 143.135 6.897 141.749 5.394 151.449 5.239 158.479 4.399 157.145 3.476 156.837 2.802 156.632 1.444 157.402 1.672 159.608 2.45 167.152-0.888 171.514 1.206 178.904-0.235 186.91 2.201 193.838 1.869 202.511 1.828 204.255 2.056 205.744 2.419 206.154 4.026 208.361 1.683 212.672 1.931 217.342 18.416 249.262 36.299 227.195 53.188 241.872 57.573 231.608 54.276 245.516 56.029 243.36 57.397 240.846 58.392 251.263 59.937 245.362 60.176 243.668 59.813 239.665 60.663 240.435 61.109 240.846 61.503 240.743 61.565 238.382 61.658 234.841 60.839 237.048 60.621 235.201 62.975 225.861 62.394 248.081 64.602 247.158 64.499 244.438 63.856 240.538 65.173 241.051 66.479 237.151 66.52 233.918 67.682 242.693 67.723 244.592 67.93 245.926 68.262 246.85 71.891 237.305 75.499 250.237 79.303 245.926 81.636 241.205 83.875 248.492 86.239 246.696 87.069 245.259 87.908 242.693 88.707 247.004 98.483 247.928 108.902 244.079 118.171 247.158 142.939 241.41 169.407 249.518 195.522 241.923 201.68 238.998 208.077 234.841 214.08 231.506 214.08 231.506 218.942 222.371 218.942 181.316S219.979 145.393 220.134 112.703C220.29 80.013 221.016 78.679 219.979 53.02Z" opacity="1" fill="#ed3b43" data-fill-palette-color="tertiary"></path><g transform="matrix(1,0,0,1,55.76832,26.230666666666668)"><svg width="108.98954183813444" viewBox="3.4000000953674316 -36.45000076293945 20.399999618530273 36.45000076293945" height="194.73866666666666" data-palette-color="#ffffff"><path d="M4.1-33.2L3.4-36.45 23.8-36.45 23.8-32.7 9.25-32.7 9.25-20.6 20.75-20.6 20.75-16.85 9.25-16.85 9.25 0 4.1 0 4.1-33.2Z" opacity="1" transform="matrix(1,0,0,1,0,0)" fill="#ffffff" class="undefined-text-0" data-fill-palette-color="quaternary" id="text-0"></path></svg></g></svg></g></svg></g></svg></g><g></g></svg></g><defs></defs></svg><rect width="220.52618183813445" height="247.2" fill="none" stroke="none" visibility="hidden"></rect></g></svg></g></svg>